<mxfile host="app.diagrams.net" modified="2024-06-15T09:18:57.328Z" agent="Mozilla/5.0 (Windows NT 10.0; Win64; x64) AppleWebKit/537.36 (KHTML, like Gecko) Chrome/125.0.0.0 Safari/537.36" etag="imGuPIDm_pZ00Mzy8Owb" version="24.5.4" type="device">
  <diagram name="Page-1" id="684o3LZX_l1Wq7qNh-Y1">
    <mxGraphModel dx="1843" dy="2052" grid="1" gridSize="10" guides="1" tooltips="1" connect="1" arrows="1" fold="1" page="1" pageScale="1" pageWidth="827" pageHeight="1169" math="0" shadow="0">
      <root>
        <mxCell id="0" />
        <mxCell id="1" parent="0" />
        <mxCell id="2kuJjPJDKPPU0F73iJCJ-2" value="Supermarket" style="text;html=1;align=center;verticalAlign=middle;whiteSpace=wrap;rounded=0;" parent="1" vertex="1">
          <mxGeometry x="384" y="-180" width="60" height="30" as="geometry" />
        </mxCell>
        <mxCell id="1G6pvhrXkOM6xjPf3qum-14" value="Käufer" style="swimlane;fontStyle=0;childLayout=stackLayout;horizontal=1;startSize=26;horizontalStack=0;resizeParent=1;resizeParentMax=0;resizeLast=0;collapsible=1;marginBottom=0;align=center;fontSize=14;" vertex="1" parent="1">
          <mxGeometry x="90" y="-110" width="160" height="116" as="geometry" />
        </mxCell>
        <mxCell id="1G6pvhrXkOM6xjPf3qum-15" value="ID: int" style="text;strokeColor=none;fillColor=none;spacingLeft=4;spacingRight=4;overflow=hidden;rotatable=0;points=[[0,0.5],[1,0.5]];portConstraint=eastwest;fontSize=12;whiteSpace=wrap;html=1;" vertex="1" parent="1G6pvhrXkOM6xjPf3qum-14">
          <mxGeometry y="26" width="160" height="30" as="geometry" />
        </mxCell>
        <mxCell id="1G6pvhrXkOM6xjPf3qum-16" value="first_name: string" style="text;strokeColor=none;fillColor=none;spacingLeft=4;spacingRight=4;overflow=hidden;rotatable=0;points=[[0,0.5],[1,0.5]];portConstraint=eastwest;fontSize=12;whiteSpace=wrap;html=1;" vertex="1" parent="1G6pvhrXkOM6xjPf3qum-14">
          <mxGeometry y="56" width="160" height="30" as="geometry" />
        </mxCell>
        <mxCell id="1G6pvhrXkOM6xjPf3qum-17" value="last_name: string" style="text;strokeColor=none;fillColor=none;spacingLeft=4;spacingRight=4;overflow=hidden;rotatable=0;points=[[0,0.5],[1,0.5]];portConstraint=eastwest;fontSize=12;whiteSpace=wrap;html=1;" vertex="1" parent="1G6pvhrXkOM6xjPf3qum-14">
          <mxGeometry y="86" width="160" height="30" as="geometry" />
        </mxCell>
        <mxCell id="1G6pvhrXkOM6xjPf3qum-18" value="Produkt" style="swimlane;fontStyle=0;childLayout=stackLayout;horizontal=1;startSize=26;horizontalStack=0;resizeParent=1;resizeParentMax=0;resizeLast=0;collapsible=1;marginBottom=0;align=center;fontSize=14;" vertex="1" parent="1">
          <mxGeometry x="610" y="-116" width="160" height="116" as="geometry" />
        </mxCell>
        <mxCell id="1G6pvhrXkOM6xjPf3qum-19" value="ID: int" style="text;strokeColor=none;fillColor=none;spacingLeft=4;spacingRight=4;overflow=hidden;rotatable=0;points=[[0,0.5],[1,0.5]];portConstraint=eastwest;fontSize=12;whiteSpace=wrap;html=1;" vertex="1" parent="1G6pvhrXkOM6xjPf3qum-18">
          <mxGeometry y="26" width="160" height="30" as="geometry" />
        </mxCell>
        <mxCell id="1G6pvhrXkOM6xjPf3qum-20" value="name: string" style="text;strokeColor=none;fillColor=none;spacingLeft=4;spacingRight=4;overflow=hidden;rotatable=0;points=[[0,0.5],[1,0.5]];portConstraint=eastwest;fontSize=12;whiteSpace=wrap;html=1;" vertex="1" parent="1G6pvhrXkOM6xjPf3qum-18">
          <mxGeometry y="56" width="160" height="30" as="geometry" />
        </mxCell>
        <mxCell id="1G6pvhrXkOM6xjPf3qum-21" value="price: float" style="text;strokeColor=none;fillColor=none;spacingLeft=4;spacingRight=4;overflow=hidden;rotatable=0;points=[[0,0.5],[1,0.5]];portConstraint=eastwest;fontSize=12;whiteSpace=wrap;html=1;" vertex="1" parent="1G6pvhrXkOM6xjPf3qum-18">
          <mxGeometry y="86" width="160" height="30" as="geometry" />
        </mxCell>
        <mxCell id="1G6pvhrXkOM6xjPf3qum-22" value="Produktdepartement" style="swimlane;fontStyle=0;childLayout=stackLayout;horizontal=1;startSize=26;horizontalStack=0;resizeParent=1;resizeParentMax=0;resizeLast=0;collapsible=1;marginBottom=0;align=center;fontSize=14;" vertex="1" parent="1">
          <mxGeometry x="610" y="143" width="160" height="86" as="geometry" />
        </mxCell>
        <mxCell id="1G6pvhrXkOM6xjPf3qum-23" value="ID: int" style="text;strokeColor=none;fillColor=none;spacingLeft=4;spacingRight=4;overflow=hidden;rotatable=0;points=[[0,0.5],[1,0.5]];portConstraint=eastwest;fontSize=12;whiteSpace=wrap;html=1;" vertex="1" parent="1G6pvhrXkOM6xjPf3qum-22">
          <mxGeometry y="26" width="160" height="30" as="geometry" />
        </mxCell>
        <mxCell id="1G6pvhrXkOM6xjPf3qum-24" value="type: string" style="text;strokeColor=none;fillColor=none;spacingLeft=4;spacingRight=4;overflow=hidden;rotatable=0;points=[[0,0.5],[1,0.5]];portConstraint=eastwest;fontSize=12;whiteSpace=wrap;html=1;" vertex="1" parent="1G6pvhrXkOM6xjPf3qum-22">
          <mxGeometry y="56" width="160" height="30" as="geometry" />
        </mxCell>
        <mxCell id="1G6pvhrXkOM6xjPf3qum-26" value="Supermarket" style="swimlane;fontStyle=0;childLayout=stackLayout;horizontal=1;startSize=26;horizontalStack=0;resizeParent=1;resizeParentMax=0;resizeLast=0;collapsible=1;marginBottom=0;align=center;fontSize=14;" vertex="1" parent="1">
          <mxGeometry x="240" y="141" width="160" height="86" as="geometry" />
        </mxCell>
        <mxCell id="1G6pvhrXkOM6xjPf3qum-27" value="ID: int" style="text;strokeColor=none;fillColor=none;spacingLeft=4;spacingRight=4;overflow=hidden;rotatable=0;points=[[0,0.5],[1,0.5]];portConstraint=eastwest;fontSize=12;whiteSpace=wrap;html=1;" vertex="1" parent="1G6pvhrXkOM6xjPf3qum-26">
          <mxGeometry y="26" width="160" height="30" as="geometry" />
        </mxCell>
        <mxCell id="1G6pvhrXkOM6xjPf3qum-28" value="name: string" style="text;strokeColor=none;fillColor=none;spacingLeft=4;spacingRight=4;overflow=hidden;rotatable=0;points=[[0,0.5],[1,0.5]];portConstraint=eastwest;fontSize=12;whiteSpace=wrap;html=1;" vertex="1" parent="1G6pvhrXkOM6xjPf3qum-26">
          <mxGeometry y="56" width="160" height="30" as="geometry" />
        </mxCell>
        <mxCell id="1G6pvhrXkOM6xjPf3qum-35" value="Käufer_Produkt" style="swimlane;fontStyle=0;align=center;verticalAlign=top;childLayout=stackLayout;horizontal=1;startSize=26;horizontalStack=0;resizeParent=1;resizeLast=0;collapsible=1;marginBottom=0;rounded=0;shadow=0;strokeWidth=1;fillColor=#eeeeee;strokeColor=#36393d;" vertex="1" parent="1">
          <mxGeometry x="340" y="-116" width="160" height="80" as="geometry">
            <mxRectangle x="130" y="380" width="160" height="26" as="alternateBounds" />
          </mxGeometry>
        </mxCell>
        <mxCell id="1G6pvhrXkOM6xjPf3qum-36" value="FK: käufer_ID: int" style="text;align=left;verticalAlign=top;spacingLeft=4;spacingRight=4;overflow=hidden;rotatable=0;points=[[0,0.5],[1,0.5]];portConstraint=eastwest;" vertex="1" parent="1G6pvhrXkOM6xjPf3qum-35">
          <mxGeometry y="26" width="160" height="26" as="geometry" />
        </mxCell>
        <mxCell id="1G6pvhrXkOM6xjPf3qum-37" value="FK: produkt_ID: int" style="text;align=left;verticalAlign=top;spacingLeft=4;spacingRight=4;overflow=hidden;rotatable=0;points=[[0,0.5],[1,0.5]];portConstraint=eastwest;rounded=0;shadow=0;html=0;" vertex="1" parent="1G6pvhrXkOM6xjPf3qum-35">
          <mxGeometry y="52" width="160" height="26" as="geometry" />
        </mxCell>
        <mxCell id="1G6pvhrXkOM6xjPf3qum-40" value="" style="endArrow=none;html=1;rounded=0;exitX=1.006;exitY=0.114;exitDx=0;exitDy=0;entryX=0;entryY=0.5;entryDx=0;entryDy=0;exitPerimeter=0;" edge="1" parent="1" source="1G6pvhrXkOM6xjPf3qum-14" target="1G6pvhrXkOM6xjPf3qum-36">
          <mxGeometry width="50" height="50" relative="1" as="geometry">
            <mxPoint x="264" y="6" as="sourcePoint" />
            <mxPoint x="444" y="6" as="targetPoint" />
            <Array as="points">
              <mxPoint x="290" y="-97" />
              <mxPoint x="290" y="-77" />
            </Array>
          </mxGeometry>
        </mxCell>
        <mxCell id="1G6pvhrXkOM6xjPf3qum-41" value="M" style="edgeLabel;html=1;align=center;verticalAlign=middle;resizable=0;points=[];" vertex="1" connectable="0" parent="1G6pvhrXkOM6xjPf3qum-40">
          <mxGeometry x="0.8232" y="2" relative="1" as="geometry">
            <mxPoint y="-6" as="offset" />
          </mxGeometry>
        </mxCell>
        <mxCell id="1G6pvhrXkOM6xjPf3qum-42" value="1" style="edgeLabel;html=1;align=center;verticalAlign=middle;resizable=0;points=[];" vertex="1" connectable="0" parent="1G6pvhrXkOM6xjPf3qum-40">
          <mxGeometry x="-0.7323" relative="1" as="geometry">
            <mxPoint x="-7" y="-10" as="offset" />
          </mxGeometry>
        </mxCell>
        <mxCell id="1G6pvhrXkOM6xjPf3qum-43" value="" style="endArrow=none;html=1;rounded=0;exitX=0.002;exitY=0.136;exitDx=0;exitDy=0;entryX=1;entryY=0.5;entryDx=0;entryDy=0;exitPerimeter=0;" edge="1" parent="1" source="1G6pvhrXkOM6xjPf3qum-18" target="1G6pvhrXkOM6xjPf3qum-37">
          <mxGeometry width="50" height="50" relative="1" as="geometry">
            <mxPoint x="410" y="100" as="sourcePoint" />
            <mxPoint x="590" y="100" as="targetPoint" />
            <Array as="points">
              <mxPoint x="550" y="-100" />
              <mxPoint x="550" y="-51" />
            </Array>
          </mxGeometry>
        </mxCell>
        <mxCell id="1G6pvhrXkOM6xjPf3qum-44" value="M" style="edgeLabel;html=1;align=center;verticalAlign=middle;resizable=0;points=[];" vertex="1" connectable="0" parent="1G6pvhrXkOM6xjPf3qum-43">
          <mxGeometry x="0.8232" y="2" relative="1" as="geometry">
            <mxPoint x="-2" y="8" as="offset" />
          </mxGeometry>
        </mxCell>
        <mxCell id="1G6pvhrXkOM6xjPf3qum-45" value="1" style="edgeLabel;html=1;align=center;verticalAlign=middle;resizable=0;points=[];" vertex="1" connectable="0" parent="1G6pvhrXkOM6xjPf3qum-43">
          <mxGeometry x="-0.7323" relative="1" as="geometry">
            <mxPoint x="7" y="-14" as="offset" />
          </mxGeometry>
        </mxCell>
        <mxCell id="1G6pvhrXkOM6xjPf3qum-46" value="" style="endArrow=none;html=1;rounded=0;exitX=0.498;exitY=1.037;exitDx=0;exitDy=0;entryX=0.5;entryY=0;entryDx=0;entryDy=0;exitPerimeter=0;" edge="1" parent="1" source="1G6pvhrXkOM6xjPf3qum-21" target="1G6pvhrXkOM6xjPf3qum-22">
          <mxGeometry width="50" height="50" relative="1" as="geometry">
            <mxPoint x="570" y="70" as="sourcePoint" />
            <mxPoint x="750" y="70" as="targetPoint" />
          </mxGeometry>
        </mxCell>
        <mxCell id="1G6pvhrXkOM6xjPf3qum-47" value="M" style="edgeLabel;html=1;align=center;verticalAlign=middle;resizable=0;points=[];" vertex="1" connectable="0" parent="1G6pvhrXkOM6xjPf3qum-46">
          <mxGeometry x="0.8232" y="2" relative="1" as="geometry">
            <mxPoint x="6" y="-121" as="offset" />
          </mxGeometry>
        </mxCell>
        <mxCell id="1G6pvhrXkOM6xjPf3qum-48" value="1" style="edgeLabel;html=1;align=center;verticalAlign=middle;resizable=0;points=[];" vertex="1" connectable="0" parent="1G6pvhrXkOM6xjPf3qum-46">
          <mxGeometry x="-0.7323" relative="1" as="geometry">
            <mxPoint x="-9" y="112" as="offset" />
          </mxGeometry>
        </mxCell>
        <mxCell id="1G6pvhrXkOM6xjPf3qum-49" value="" style="endArrow=none;html=1;rounded=0;exitX=-0.012;exitY=0.134;exitDx=0;exitDy=0;entryX=1.012;entryY=0.166;entryDx=0;entryDy=0;exitPerimeter=0;entryPerimeter=0;" edge="1" parent="1" source="1G6pvhrXkOM6xjPf3qum-22" target="1G6pvhrXkOM6xjPf3qum-26">
          <mxGeometry width="50" height="50" relative="1" as="geometry">
            <mxPoint x="490" y="60" as="sourcePoint" />
            <mxPoint x="490" y="202" as="targetPoint" />
          </mxGeometry>
        </mxCell>
        <mxCell id="1G6pvhrXkOM6xjPf3qum-50" value="M" style="edgeLabel;html=1;align=center;verticalAlign=middle;resizable=0;points=[];" vertex="1" connectable="0" parent="1G6pvhrXkOM6xjPf3qum-49">
          <mxGeometry x="0.8232" y="2" relative="1" as="geometry">
            <mxPoint x="181" y="-11" as="offset" />
          </mxGeometry>
        </mxCell>
        <mxCell id="1G6pvhrXkOM6xjPf3qum-51" value="1" style="edgeLabel;html=1;align=center;verticalAlign=middle;resizable=0;points=[];" vertex="1" connectable="0" parent="1G6pvhrXkOM6xjPf3qum-49">
          <mxGeometry x="-0.7323" relative="1" as="geometry">
            <mxPoint x="-174" y="-9" as="offset" />
          </mxGeometry>
        </mxCell>
      </root>
    </mxGraphModel>
  </diagram>
</mxfile>
